<svg width="776" height="120" viewBox="0 0 776 120" fill="none" xmlns="http://www.w3.org/2000/svg">
<path d="M155.296 119.999C154.328 119.999 153.535 119.7 152.919 119.1C152.302 118.5 151.994 117.728 151.994 116.785V33.2143C151.994 32.2714 152.302 31.5 152.919 30.9C153.535 30.3 154.328 30 155.296 30H192.278C199.586 30 205.926 31.1143 211.297 33.3428C216.757 35.4857 220.983 38.7428 223.977 43.1142C227.059 47.4856 228.6 53.0142 228.6 59.6998C228.6 66.2998 227.059 71.7426 223.977 76.0283C220.983 80.314 216.757 83.4854 211.297 85.5425C205.926 87.5997 199.586 88.6282 192.278 88.6282H176.561V116.785C176.561 117.728 176.209 118.5 175.504 119.1C174.888 119.7 174.095 119.999 173.127 119.999H155.296ZM176.165 70.8855H191.618C195.404 70.8855 198.398 69.9426 200.599 68.0569C202.888 66.1712 204.033 63.2998 204.033 59.4427C204.033 56.1856 203.065 53.4427 201.127 51.2142C199.19 48.9856 196.02 47.8713 191.618 47.8713H176.165V70.8855Z" fill="#181818"/>
<path d="M281.808 119.999C273.707 119.999 266.522 119.999 260.534 117.428C254.546 114.857 249.88 111 246.534 105.857C243.188 100.628 241.338 94.1139 240.986 86.314C240.898 82.6283 240.854 78.9426 240.854 75.2569C240.854 71.5712 240.898 67.8426 240.986 64.0712C241.338 56.357 243.188 49.8856 246.534 44.6571C249.968 39.3428 254.678 35.3571 260.666 32.7C266.654 30.0429 273.795 30 281.808 30C289.733 30 296.547 30.0429 302.535 32.7C308.611 35.3571 313.365 39.3428 316.799 44.6571C320.234 49.8856 322.083 56.357 322.347 64.0712C322.523 67.8426 322.611 71.5712 322.611 75.2569C322.611 78.9426 322.523 82.6283 322.347 86.314C321.995 94.1139 320.145 100.628 316.799 105.857C313.453 111 308.787 114.857 302.799 117.428C296.812 119.999 289.909 119.999 281.808 119.999ZM281.667 102.771C286.333 102.771 290.12 101.4 293.025 98.6568C296.019 95.9139 297.604 91.5425 297.78 85.5425C297.956 81.7711 298.044 78.214 298.044 74.8712C298.044 71.5283 297.956 68.0569 297.78 64.457C297.604 60.4284 296.812 57.1713 295.403 54.6856C294.082 52.1142 292.233 50.2285 289.855 49.0285C287.478 47.8285 284.748 47.2285 281.667 47.2285C278.673 47.2285 275.987 47.8285 273.61 49.0285C271.232 50.2285 269.339 52.1142 267.93 54.6856C266.522 57.1713 265.729 60.4284 265.553 64.457C265.465 68.0569 265.421 71.5283 265.421 74.8712C265.421 78.214 265.465 81.7711 265.553 85.5425C265.817 91.5425 267.402 95.9139 270.308 98.6568C273.214 101.4 277 102.771 281.667 102.771Z" fill="#181818"/>
<path d="M343.864 119.999C342.896 119.999 342.103 119.7 341.487 119.1C340.87 118.5 340.562 117.728 340.562 116.785V33.2143C340.562 32.2714 340.87 31.5 341.487 30.9C342.103 30.3 342.896 30 343.864 30H379.79C391.148 30 400.086 32.5714 406.602 37.7142C413.206 42.7714 416.508 49.9713 416.508 59.3141C416.508 65.3998 414.967 70.5426 411.885 74.7426C408.891 78.9426 404.929 82.114 399.998 84.2568L418.225 115.885C418.489 116.4 418.621 116.871 418.621 117.3C418.621 117.985 418.313 118.628 417.696 119.228C417.168 119.742 416.508 119.999 415.715 119.999H398.281C396.608 119.999 395.375 119.614 394.582 118.842C393.79 117.985 393.218 117.214 392.865 116.528L377.808 88.2425H364.204V116.785C364.204 117.728 363.896 118.5 363.28 119.1C362.663 119.7 361.871 119.999 360.902 119.999H343.864ZM364.204 70.1141H379.525C383.664 70.1141 386.746 69.1284 388.771 67.1569C390.884 65.1855 391.941 62.4855 391.941 59.057C391.941 55.7141 390.928 53.0142 388.903 50.957C386.966 48.8999 383.84 47.8713 379.525 47.8713H364.204V70.1141Z" fill="#181818"/>
<path d="M457.263 119.999C456.295 119.999 455.502 119.7 454.886 119.1C454.269 118.5 453.961 117.728 453.961 116.785V50.1856H430.451C429.483 50.1856 428.69 49.8856 428.074 49.2856C427.457 48.5999 427.149 47.8285 427.149 46.9713V33.2143C427.149 32.2714 427.457 31.5 428.074 30.9C428.69 30.3 429.483 30 430.451 30H501.509C502.478 30 503.271 30.3 503.887 30.9C504.503 31.5 504.811 32.2714 504.811 33.2143V46.9713C504.811 47.8285 504.503 48.5999 503.887 49.2856C503.271 49.8856 502.478 50.1856 501.509 50.1856H477.999V116.785C477.999 117.728 477.691 118.5 477.075 119.1C476.459 119.7 475.666 119.999 474.697 119.999H457.263Z" fill="#181818"/>
<path d="M504.758 119.999C504.053 119.999 503.393 119.742 502.777 119.228C502.248 118.628 501.984 117.985 501.984 117.3C501.984 116.871 502.028 116.485 502.116 116.142L533.155 33.6C533.419 32.6571 533.947 31.8429 534.74 31.1571C535.62 30.3857 536.809 30 538.306 30H557.853C559.35 30 560.495 30.3857 561.287 31.1571C562.168 31.8429 562.74 32.6571 563.004 33.6L593.911 116.142C594.087 116.485 594.175 116.871 594.175 117.3C594.175 117.985 593.867 118.628 593.25 119.228C592.722 119.742 592.062 119.999 591.269 119.999H575.024C573.703 119.999 572.69 119.7 571.986 119.1C571.369 118.414 570.973 117.814 570.797 117.3L565.646 104.185H530.381L525.362 117.3C525.186 117.814 524.79 118.414 524.173 119.1C523.557 119.7 522.5 119.999 521.003 119.999H504.758ZM535.796 85.6711H560.363L547.948 51.7285L535.796 85.6711Z" fill="#181818"/>
<path d="M610.529 119.999C609.56 119.999 608.768 119.7 608.152 119.1C607.535 118.5 607.227 117.728 607.227 116.785V33.2143C607.227 32.2714 607.535 31.5 608.152 30.9C608.768 30.3 609.56 30 610.529 30H624.529C626.026 30 627.083 30.3429 627.699 31.0286C628.404 31.6286 628.844 32.1 629.02 32.4428L661.247 81.9426V33.2143C661.247 32.2714 661.556 31.5 662.172 30.9C662.788 30.3 663.581 30 664.549 30H680.399C681.367 30 682.16 30.3 682.776 30.9C683.393 31.5 683.701 32.2714 683.701 33.2143V116.785C683.701 117.642 683.393 118.414 682.776 119.1C682.16 119.7 681.367 119.999 680.399 119.999H666.266C664.857 119.999 663.801 119.657 663.096 118.971C662.48 118.285 662.084 117.814 661.908 117.557L629.681 69.9855V116.785C629.681 117.728 629.372 118.5 628.756 119.1C628.14 119.7 627.347 119.999 626.379 119.999H610.529Z" fill="#181818"/>
<path d="M728.442 119.999C727.474 119.999 726.681 119.7 726.065 119.1C725.448 118.5 725.14 117.728 725.14 116.785V50.1856H701.63C700.662 50.1856 699.869 49.8856 699.253 49.2856C698.637 48.5999 698.328 47.8285 698.328 46.9713V33.2143C698.328 32.2714 698.637 31.5 699.253 30.9C699.869 30.3 700.662 30 701.63 30H772.689C773.657 30 774.45 30.3 775.066 30.9C775.682 31.5 775.991 32.2714 775.991 33.2143V46.9713C775.991 47.8285 775.682 48.5999 775.066 49.2856C774.45 49.8856 773.657 50.1856 772.689 50.1856H749.179V116.785C749.179 117.728 748.87 118.5 748.254 119.1C747.638 119.7 746.845 119.999 745.877 119.999H728.442Z" fill="#181818"/>
<path d="M46.9585 119.996C46.1106 119.996 45.3475 119.699 44.6691 119.105C44.0756 118.512 43.7788 117.749 43.7788 116.816V34.1436C43.7788 33.2109 44.0756 32.4477 44.6691 31.8542C45.3475 31.2606 46.1106 30.9639 46.9585 30.9639H60.6949C62.0516 30.9639 63.0691 31.3454 63.7474 32.1086C64.5105 32.7869 64.9769 33.3381 65.1465 33.762L87.5317 70.0826L109.917 33.762C110.171 33.3381 110.595 32.7869 111.189 32.1086C111.867 31.3454 112.927 30.9639 114.368 30.9639H127.978C128.91 30.9639 129.673 31.2606 130.267 31.8542C130.945 32.4477 131.285 33.2109 131.285 34.1436V116.816C131.285 117.749 130.945 118.512 130.267 119.105C129.673 119.699 128.91 119.996 127.978 119.996H112.842C111.909 119.996 111.104 119.699 110.426 119.105C109.832 118.512 109.535 117.749 109.535 116.816V69.1204L95.163 91.8319C94.8238 92.595 94.315 93.2733 93.6367 93.8669C92.9584 94.4604 92.0257 94.7572 90.8386 94.7572H87.5317H84.2248C83.0377 94.7572 82.1049 94.4604 81.4266 93.8669C80.7483 93.2733 80.1971 92.595 79.7732 91.8319L65.4009 69.1204V116.816C65.4009 117.749 65.1041 118.512 64.5105 119.105C63.917 119.699 63.1539 119.996 62.2211 119.996H46.9585Z" fill="#181818"/>
<path d="M20.0787 30.9676C21.0044 30.9676 21.7617 31.1914 22.3508 31.639C22.9399 32.0865 23.2344 32.662 23.2344 33.3654L23.2344 117.602C23.2344 118.305 22.9398 118.881 22.3508 119.328C21.7617 119.776 21.0044 120 20.0787 120L3.16431 120C2.23865 120 1.48129 119.776 0.892233 119.328C0.303175 118.881 0.00864616 118.305 0.00864622 117.602L0.00864977 33.3654C0.00864983 32.662 0.303179 32.0865 0.892239 31.639C1.4813 31.1914 2.23866 30.9676 3.16432 30.9676L20.0787 30.9676Z" fill="#FF3434"/>
<circle cx="54.2042" cy="11.6129" r="11.6129" fill="#FF3434"/>
<circle cx="119.607" cy="11.6129" r="11.6129" fill="#181818"/>
<circle cx="11.6129" cy="11.6129" r="11.6129" fill="#FF3434"/>
<path d="M44.6662 119.11C45.3445 119.703 46.1077 120 46.9556 120H62.2182C63.1509 120 63.9141 119.703 64.5076 119.11C65.1012 118.516 65.3979 117.753 65.3979 116.821V69.1248L79.7702 91.8363C80.1942 92.5994 80.7453 93.2777 81.4237 93.8713C82.102 94.4648 83.0347 94.7616 84.2218 94.7616H87.5287V70.087L65.1435 33.7664C64.974 33.3425 64.5076 32.7913 63.7445 32.113C63.0661 31.3498 62.0486 30.9683 60.6919 30.9683H46.9556C46.1077 30.9683 45.3445 31.265 44.6662 31.8586C44.0727 32.4521 43.7759 33.2153 43.7759 34.148V116.821C43.7759 117.753 44.0727 118.516 44.6662 119.11Z" fill="#FF3434"/>
</svg>
